<?xml version="1.0" standalone="no"?>
<!DOCTYPE svg PUBLIC "-//W3C//DTD SVG 20010904//EN"
 "http://www.w3.org/TR/2001/REC-SVG-20010904/DTD/svg10.dtd">
<svg version="1.0" xmlns="http://www.w3.org/2000/svg"
 width="192.000000pt" height="192.000000pt" viewBox="0 0 192.000000 192.000000"
 preserveAspectRatio="xMidYMid meet">

<g transform="translate(0.000000,192.000000) scale(0.100000,-0.100000)"
fill="#000000" stroke="none">
<path d="M205 1901 c-103 -42 -148 -86 -184 -181 -21 -54 -21 -70 -21 -772 l0
-717 24 -54 c31 -71 76 -120 138 -151 l52 -26 751 0 751 0 52 26 c59 29 107
79 134 140 17 41 18 78 16 796 l-3 753 -25 49 c-32 62 -86 108 -159 135 -57
21 -68 21 -772 20 -638 -1 -718 -3 -754 -18z m897 -245 c266 -51 495 -255 579
-514 86 -269 26 -547 -161 -754 -53 -60 -144 -138 -160 -138 -4 0 -10 14 -14
30 -3 17 -17 41 -30 53 -14 13 -28 35 -31 50 -8 31 -49 67 -75 67 -11 0 -22
12 -28 28 -70 193 -132 373 -132 380 0 4 16 16 35 25 45 22 90 85 105 148 47
193 -151 351 -328 263 -143 -71 -172 -264 -57 -380 25 -24 51 -44 60 -44 8 0
15 -5 15 -11 0 -8 -112 -333 -135 -391 -4 -10 -16 -18 -27 -18 -25 0 -78 -53
-78 -78 0 -11 -11 -27 -25 -36 -14 -10 -27 -30 -31 -51 -3 -19 -10 -35 -14
-35 -16 0 -106 78 -160 138 -164 181 -231 418 -185 659 78 411 475 686 877
609z"/>
</g>
</svg>
